<mxfile host="app.diagrams.net" modified="2024-03-12T11:05:57.601Z" agent="Mozilla/5.0 (Windows NT 10.0; Win64; x64) AppleWebKit/537.36 (KHTML, like Gecko) Chrome/122.0.0.0 Safari/537.36" etag="p5ppAYypfSnGUoohRVgV" version="24.0.5" type="device">
  <diagram name="Page-1" id="nL1R2m5ImviA0rb5uKM7">
    <mxGraphModel dx="1195" dy="1071" grid="1" gridSize="10" guides="1" tooltips="1" connect="1" arrows="1" fold="1" page="1" pageScale="1" pageWidth="827" pageHeight="1169" math="0" shadow="0">
      <root>
        <mxCell id="0" />
        <mxCell id="1" parent="0" />
        <mxCell id="T7wmiBNPCrbkLk8Af17o-50" value="" style="rounded=1;whiteSpace=wrap;html=1;fillColor=#DCE8DC;strokeColor=#9999FF;" vertex="1" parent="1">
          <mxGeometry x="790" y="630" width="310" height="170" as="geometry" />
        </mxCell>
        <mxCell id="T7wmiBNPCrbkLk8Af17o-39" value="" style="rounded=1;whiteSpace=wrap;html=1;fillColor=#DCE8DC;strokeColor=#82b366;" vertex="1" parent="1">
          <mxGeometry x="790" y="260.5" width="180" height="200" as="geometry" />
        </mxCell>
        <mxCell id="T7wmiBNPCrbkLk8Af17o-3" style="edgeStyle=orthogonalEdgeStyle;rounded=0;orthogonalLoop=1;jettySize=auto;html=1;exitX=1;exitY=0.5;exitDx=0;exitDy=0;" edge="1" parent="1" source="T7wmiBNPCrbkLk8Af17o-1" target="T7wmiBNPCrbkLk8Af17o-2">
          <mxGeometry relative="1" as="geometry" />
        </mxCell>
        <mxCell id="T7wmiBNPCrbkLk8Af17o-4" value="HTTP Request" style="edgeLabel;html=1;align=center;verticalAlign=middle;resizable=0;points=[];" vertex="1" connectable="0" parent="T7wmiBNPCrbkLk8Af17o-3">
          <mxGeometry x="0.0224" y="-1" relative="1" as="geometry">
            <mxPoint as="offset" />
          </mxGeometry>
        </mxCell>
        <mxCell id="T7wmiBNPCrbkLk8Af17o-1" value="" style="image;aspect=fixed;perimeter=ellipsePerimeter;html=1;align=center;shadow=0;dashed=0;spacingTop=3;image=img/lib/active_directory/internet_globe.svg;" vertex="1" parent="1">
          <mxGeometry x="160" y="280.5" width="50" height="50" as="geometry" />
        </mxCell>
        <mxCell id="T7wmiBNPCrbkLk8Af17o-17" style="edgeStyle=orthogonalEdgeStyle;rounded=0;orthogonalLoop=1;jettySize=auto;html=1;entryX=0;entryY=0.5;entryDx=0;entryDy=0;" edge="1" parent="1" source="T7wmiBNPCrbkLk8Af17o-2" target="T7wmiBNPCrbkLk8Af17o-82">
          <mxGeometry relative="1" as="geometry">
            <Array as="points">
              <mxPoint x="480" y="304" />
              <mxPoint x="480" y="420" />
            </Array>
          </mxGeometry>
        </mxCell>
        <mxCell id="T7wmiBNPCrbkLk8Af17o-29" value="ns.trap.jp" style="edgeLabel;html=1;align=center;verticalAlign=middle;resizable=0;points=[];" vertex="1" connectable="0" parent="T7wmiBNPCrbkLk8Af17o-17">
          <mxGeometry x="0.5433" y="-1" relative="1" as="geometry">
            <mxPoint x="8" y="-1" as="offset" />
          </mxGeometry>
        </mxCell>
        <mxCell id="T7wmiBNPCrbkLk8Af17o-23" style="edgeStyle=orthogonalEdgeStyle;rounded=0;orthogonalLoop=1;jettySize=auto;html=1;entryX=0;entryY=0.5;entryDx=0;entryDy=0;" edge="1" parent="1" source="T7wmiBNPCrbkLk8Af17o-2" target="T7wmiBNPCrbkLk8Af17o-20">
          <mxGeometry relative="1" as="geometry">
            <Array as="points">
              <mxPoint x="480" y="304.5" />
              <mxPoint x="480" y="310.5" />
            </Array>
          </mxGeometry>
        </mxCell>
        <mxCell id="T7wmiBNPCrbkLk8Af17o-31" value="User-configured URL (*.trap.show, *.trap.games)" style="edgeLabel;html=1;align=center;verticalAlign=middle;resizable=0;points=[];" vertex="1" connectable="0" parent="T7wmiBNPCrbkLk8Af17o-23">
          <mxGeometry x="0.1444" y="-1" relative="1" as="geometry">
            <mxPoint x="2" y="-1" as="offset" />
          </mxGeometry>
        </mxCell>
        <mxCell id="T7wmiBNPCrbkLk8Af17o-80" style="edgeStyle=orthogonalEdgeStyle;rounded=0;orthogonalLoop=1;jettySize=auto;html=1;entryX=0.5;entryY=1;entryDx=0;entryDy=0;startArrow=classic;startFill=1;" edge="1" parent="1" source="T7wmiBNPCrbkLk8Af17o-2" target="T7wmiBNPCrbkLk8Af17o-79">
          <mxGeometry relative="1" as="geometry" />
        </mxCell>
        <mxCell id="T7wmiBNPCrbkLk8Af17o-81" value="Proxy Authentication" style="edgeLabel;html=1;align=center;verticalAlign=middle;resizable=0;points=[];" vertex="1" connectable="0" parent="T7wmiBNPCrbkLk8Af17o-80">
          <mxGeometry x="0.013" y="1" relative="1" as="geometry">
            <mxPoint as="offset" />
          </mxGeometry>
        </mxCell>
        <mxCell id="T7wmiBNPCrbkLk8Af17o-2" value="&lt;b&gt;traefik&lt;/b&gt;&lt;br&gt;(Reverse Proxy)" style="sketch=0;pointerEvents=1;shadow=0;dashed=0;html=1;strokeColor=none;fillColor=#505050;labelPosition=center;verticalLabelPosition=bottom;verticalAlign=top;outlineConnect=0;align=center;shape=mxgraph.office.servers.reverse_proxy;" vertex="1" parent="1">
          <mxGeometry x="350" y="277.5" width="41" height="53" as="geometry" />
        </mxCell>
        <mxCell id="T7wmiBNPCrbkLk8Af17o-5" value="User App 1 (Runtime)" style="image;aspect=fixed;html=1;points=[];align=center;fontSize=12;image=img/lib/azure2/other/Container_App_Environments.svg;" vertex="1" parent="1">
          <mxGeometry x="840" y="120" width="40" height="40" as="geometry" />
        </mxCell>
        <mxCell id="T7wmiBNPCrbkLk8Af17o-10" value="User App 2 (Runtime)" style="image;aspect=fixed;html=1;points=[];align=center;fontSize=12;image=img/lib/azure2/other/Container_App_Environments.svg;" vertex="1" parent="1">
          <mxGeometry x="840" y="189" width="40" height="40" as="geometry" />
        </mxCell>
        <mxCell id="T7wmiBNPCrbkLk8Af17o-14" style="edgeStyle=orthogonalEdgeStyle;rounded=0;orthogonalLoop=1;jettySize=auto;html=1;entryX=-0.004;entryY=0.504;entryDx=0;entryDy=0;entryPerimeter=0;" edge="1" parent="1" source="T7wmiBNPCrbkLk8Af17o-2" target="T7wmiBNPCrbkLk8Af17o-5">
          <mxGeometry relative="1" as="geometry">
            <Array as="points">
              <mxPoint x="480" y="304.5" />
              <mxPoint x="480" y="140.5" />
            </Array>
          </mxGeometry>
        </mxCell>
        <mxCell id="T7wmiBNPCrbkLk8Af17o-27" value="User-configured URL (*.trap.show, *.trap.games)" style="edgeLabel;html=1;align=center;verticalAlign=middle;resizable=0;points=[];" vertex="1" connectable="0" parent="T7wmiBNPCrbkLk8Af17o-14">
          <mxGeometry x="0.4385" y="-2" relative="1" as="geometry">
            <mxPoint x="-40" y="-2" as="offset" />
          </mxGeometry>
        </mxCell>
        <mxCell id="T7wmiBNPCrbkLk8Af17o-15" style="edgeStyle=orthogonalEdgeStyle;rounded=0;orthogonalLoop=1;jettySize=auto;html=1;entryX=-0.032;entryY=0.554;entryDx=0;entryDy=0;entryPerimeter=0;" edge="1" parent="1" source="T7wmiBNPCrbkLk8Af17o-2" target="T7wmiBNPCrbkLk8Af17o-10">
          <mxGeometry relative="1" as="geometry">
            <Array as="points">
              <mxPoint x="480" y="304.5" />
              <mxPoint x="480" y="210.5" />
              <mxPoint x="839" y="210.5" />
            </Array>
          </mxGeometry>
        </mxCell>
        <mxCell id="T7wmiBNPCrbkLk8Af17o-30" value="User-configured URL (*.trap.show, *.trap.games)" style="edgeLabel;html=1;align=center;verticalAlign=middle;resizable=0;points=[];" vertex="1" connectable="0" parent="T7wmiBNPCrbkLk8Af17o-15">
          <mxGeometry x="0.1085" y="-1" relative="1" as="geometry">
            <mxPoint x="32" y="-2" as="offset" />
          </mxGeometry>
        </mxCell>
        <mxCell id="T7wmiBNPCrbkLk8Af17o-19" style="edgeStyle=orthogonalEdgeStyle;rounded=0;orthogonalLoop=1;jettySize=auto;html=1;entryX=0.75;entryY=1;entryDx=0;entryDy=0;" edge="1" parent="1" source="T7wmiBNPCrbkLk8Af17o-16" target="T7wmiBNPCrbkLk8Af17o-18">
          <mxGeometry relative="1" as="geometry">
            <Array as="points">
              <mxPoint x="660" y="590" />
              <mxPoint x="900" y="590" />
            </Array>
          </mxGeometry>
        </mxCell>
        <mxCell id="T7wmiBNPCrbkLk8Af17o-78" value="Notify&lt;br&gt;reload" style="edgeLabel;html=1;align=center;verticalAlign=middle;resizable=0;points=[];" vertex="1" connectable="0" parent="T7wmiBNPCrbkLk8Af17o-19">
          <mxGeometry x="0.0186" y="3" relative="1" as="geometry">
            <mxPoint x="73" y="-62" as="offset" />
          </mxGeometry>
        </mxCell>
        <mxCell id="T7wmiBNPCrbkLk8Af17o-68" style="edgeStyle=orthogonalEdgeStyle;rounded=0;orthogonalLoop=1;jettySize=auto;html=1;exitX=0.847;exitY=0.004;exitDx=0;exitDy=0;entryX=0;entryY=0.5;entryDx=0;entryDy=0;exitPerimeter=0;" edge="1" parent="1" source="T7wmiBNPCrbkLk8Af17o-16" target="T7wmiBNPCrbkLk8Af17o-65">
          <mxGeometry relative="1" as="geometry">
            <Array as="points">
              <mxPoint x="670" y="650" />
              <mxPoint x="670" y="610" />
              <mxPoint x="1050" y="610" />
              <mxPoint x="1050" y="326" />
            </Array>
          </mxGeometry>
        </mxCell>
        <mxCell id="T7wmiBNPCrbkLk8Af17o-77" value="Configure" style="edgeLabel;html=1;align=center;verticalAlign=middle;resizable=0;points=[];" vertex="1" connectable="0" parent="T7wmiBNPCrbkLk8Af17o-68">
          <mxGeometry x="-0.4781" y="-1" relative="1" as="geometry">
            <mxPoint x="125" y="-1" as="offset" />
          </mxGeometry>
        </mxCell>
        <mxCell id="T7wmiBNPCrbkLk8Af17o-108" style="edgeStyle=orthogonalEdgeStyle;rounded=0;orthogonalLoop=1;jettySize=auto;html=1;exitX=0.25;exitY=1;exitDx=0;exitDy=0;entryX=1;entryY=0.5;entryDx=0;entryDy=0;" edge="1" parent="1" source="T7wmiBNPCrbkLk8Af17o-16" target="T7wmiBNPCrbkLk8Af17o-104">
          <mxGeometry relative="1" as="geometry">
            <Array as="points">
              <mxPoint x="600" y="760" />
              <mxPoint x="220" y="760" />
            </Array>
          </mxGeometry>
        </mxCell>
        <mxCell id="T7wmiBNPCrbkLk8Af17o-109" value="Polling" style="edgeLabel;html=1;align=center;verticalAlign=middle;resizable=0;points=[];" vertex="1" connectable="0" parent="T7wmiBNPCrbkLk8Af17o-108">
          <mxGeometry x="0.0682" y="-2" relative="1" as="geometry">
            <mxPoint x="-50" y="2" as="offset" />
          </mxGeometry>
        </mxCell>
        <mxCell id="T7wmiBNPCrbkLk8Af17o-112" style="edgeStyle=orthogonalEdgeStyle;rounded=0;orthogonalLoop=1;jettySize=auto;html=1;exitX=0.25;exitY=0;exitDx=0;exitDy=0;" edge="1" parent="1" source="T7wmiBNPCrbkLk8Af17o-16">
          <mxGeometry relative="1" as="geometry">
            <mxPoint x="370" y="370" as="targetPoint" />
            <Array as="points">
              <mxPoint x="600" y="550" />
              <mxPoint x="370" y="550" />
            </Array>
          </mxGeometry>
        </mxCell>
        <mxCell id="T7wmiBNPCrbkLk8Af17o-113" value="Configure routes" style="edgeLabel;html=1;align=center;verticalAlign=middle;resizable=0;points=[];" vertex="1" connectable="0" parent="T7wmiBNPCrbkLk8Af17o-112">
          <mxGeometry x="-0.1137" y="-2" relative="1" as="geometry">
            <mxPoint as="offset" />
          </mxGeometry>
        </mxCell>
        <mxCell id="T7wmiBNPCrbkLk8Af17o-16" value="&lt;b&gt;ns-controller&lt;/b&gt;&lt;div&gt;The core&lt;br&gt;component&lt;/div&gt;" style="rounded=1;whiteSpace=wrap;html=1;fillColor=#d5e8d4;strokeColor=#82b366;" vertex="1" parent="1">
          <mxGeometry x="570" y="650" width="120" height="60" as="geometry" />
        </mxCell>
        <mxCell id="T7wmiBNPCrbkLk8Af17o-21" style="edgeStyle=orthogonalEdgeStyle;rounded=0;orthogonalLoop=1;jettySize=auto;html=1;exitX=0.5;exitY=0;exitDx=0;exitDy=0;entryX=0.5;entryY=1;entryDx=0;entryDy=0;" edge="1" parent="1" source="T7wmiBNPCrbkLk8Af17o-18" target="T7wmiBNPCrbkLk8Af17o-20">
          <mxGeometry relative="1" as="geometry" />
        </mxCell>
        <mxCell id="T7wmiBNPCrbkLk8Af17o-22" value="Configure" style="edgeLabel;html=1;align=center;verticalAlign=middle;resizable=0;points=[];labelBackgroundColor=#DCE8DC;" vertex="1" connectable="0" parent="T7wmiBNPCrbkLk8Af17o-21">
          <mxGeometry x="0.0483" y="3" relative="1" as="geometry">
            <mxPoint as="offset" />
          </mxGeometry>
        </mxCell>
        <mxCell id="T7wmiBNPCrbkLk8Af17o-18" value="&lt;b&gt;ns-ssgen&lt;br&gt;&lt;/b&gt;Static-site generator" style="rounded=1;whiteSpace=wrap;html=1;fillColor=#d5e8d4;strokeColor=#82b366;" vertex="1" parent="1">
          <mxGeometry x="810" y="383.5" width="120" height="60" as="geometry" />
        </mxCell>
        <mxCell id="T7wmiBNPCrbkLk8Af17o-20" value="&lt;b&gt;Static File Server&lt;br&gt;&lt;/b&gt;(Caddy)" style="rounded=1;whiteSpace=wrap;html=1;fillColor=#dae8fc;strokeColor=#6c8ebf;" vertex="1" parent="1">
          <mxGeometry x="810" y="280.5" width="120" height="60" as="geometry" />
        </mxCell>
        <mxCell id="T7wmiBNPCrbkLk8Af17o-33" value="𝑻𝒉𝒆 𝑰𝒏𝒕𝒆𝒓𝒏𝒆𝒕" style="edgeLabel;html=1;align=center;verticalAlign=middle;resizable=0;points=[];" vertex="1" connectable="0" parent="1">
          <mxGeometry x="184.99551063801576" y="340.4972413793105" as="geometry" />
        </mxCell>
        <mxCell id="T7wmiBNPCrbkLk8Af17o-47" style="edgeStyle=orthogonalEdgeStyle;rounded=0;orthogonalLoop=1;jettySize=auto;html=1;entryX=0;entryY=0.5;entryDx=0;entryDy=0;" edge="1" parent="1" source="T7wmiBNPCrbkLk8Af17o-35" target="T7wmiBNPCrbkLk8Af17o-43">
          <mxGeometry relative="1" as="geometry">
            <Array as="points">
              <mxPoint x="870" y="750" />
              <mxPoint x="940" y="750" />
              <mxPoint x="940" y="680" />
            </Array>
          </mxGeometry>
        </mxCell>
        <mxCell id="T7wmiBNPCrbkLk8Af17o-96" style="edgeStyle=orthogonalEdgeStyle;rounded=0;orthogonalLoop=1;jettySize=auto;html=1;exitX=0.5;exitY=1;exitDx=0;exitDy=0;entryX=0;entryY=0.5;entryDx=0;entryDy=0;" edge="1" parent="1" source="T7wmiBNPCrbkLk8Af17o-35" target="T7wmiBNPCrbkLk8Af17o-38">
          <mxGeometry relative="1" as="geometry" />
        </mxCell>
        <mxCell id="T7wmiBNPCrbkLk8Af17o-97" value="&lt;span style=&quot;color: rgba(0, 0, 0, 0); font-family: monospace; font-size: 0px; text-align: start; background-color: rgb(251, 251, 251);&quot;&gt;%3CmxGraphModel%3E%3Croot%3E%3CmxCell%20id%3D%220%22%2F%3E%3CmxCell%20id%3D%221%22%20parent%3D%220%22%2F%3E%3CmxCell%20id%3D%222%22%20value%3D%22Instruct%20to%20build%26lt%3Bdiv%26gt%3Bdocker%20image%26lt%3B%2Fdiv%26gt%3B%22%20style%3D%22edgeLabel%3Bhtml%3D1%3Balign%3Dcenter%3BverticalAlign%3Dmiddle%3Bresizable%3D0%3Bpoints%3D%5B%5D%3B%22%20vertex%3D%221%22%20connectable%3D%220%22%20parent%3D%221%22%3E%3CmxGeometry%20x%3D%22960.1428540083302%22%20y%3D%22730.0110243465494%22%20as%3D%22geometry%22%2F%3E%3C%2FmxCell%3E%3C%2Froot%3E%3C%2FmxGraphModel%3E&lt;/span&gt;" style="edgeLabel;html=1;align=center;verticalAlign=middle;resizable=0;points=[];" vertex="1" connectable="0" parent="T7wmiBNPCrbkLk8Af17o-96">
          <mxGeometry x="0.5194" y="2" relative="1" as="geometry">
            <mxPoint as="offset" />
          </mxGeometry>
        </mxCell>
        <mxCell id="T7wmiBNPCrbkLk8Af17o-98" value="Delegate" style="edgeLabel;html=1;align=center;verticalAlign=middle;resizable=0;points=[];labelBackgroundColor=#DCE8DC;" vertex="1" connectable="0" parent="T7wmiBNPCrbkLk8Af17o-96">
          <mxGeometry x="0.5112" y="1" relative="1" as="geometry">
            <mxPoint x="-28" as="offset" />
          </mxGeometry>
        </mxCell>
        <mxCell id="T7wmiBNPCrbkLk8Af17o-115" style="edgeStyle=orthogonalEdgeStyle;rounded=0;orthogonalLoop=1;jettySize=auto;html=1;exitX=0;exitY=0.5;exitDx=0;exitDy=0;entryX=1;entryY=0.5;entryDx=0;entryDy=0;" edge="1" parent="1" source="T7wmiBNPCrbkLk8Af17o-35" target="T7wmiBNPCrbkLk8Af17o-16">
          <mxGeometry relative="1" as="geometry" />
        </mxCell>
        <mxCell id="T7wmiBNPCrbkLk8Af17o-116" value="Wait for&lt;br&gt;build job" style="edgeLabel;html=1;align=center;verticalAlign=middle;resizable=0;points=[];" vertex="1" connectable="0" parent="T7wmiBNPCrbkLk8Af17o-115">
          <mxGeometry x="-0.0611" y="2" relative="1" as="geometry">
            <mxPoint x="-8" y="-2" as="offset" />
          </mxGeometry>
        </mxCell>
        <mxCell id="T7wmiBNPCrbkLk8Af17o-35" value="&lt;b&gt;ns-builder&lt;/b&gt;&lt;div&gt;App image builder&lt;/div&gt;" style="rounded=1;whiteSpace=wrap;html=1;fillColor=#d5e8d4;strokeColor=#82b366;" vertex="1" parent="1">
          <mxGeometry x="810" y="650" width="120" height="60" as="geometry" />
        </mxCell>
        <mxCell id="T7wmiBNPCrbkLk8Af17o-102" style="edgeStyle=orthogonalEdgeStyle;rounded=0;orthogonalLoop=1;jettySize=auto;html=1;entryX=0.5;entryY=1;entryDx=0;entryDy=0;" edge="1" parent="1" source="T7wmiBNPCrbkLk8Af17o-38" target="T7wmiBNPCrbkLk8Af17o-57">
          <mxGeometry relative="1" as="geometry">
            <Array as="points">
              <mxPoint x="1160" y="750" />
            </Array>
          </mxGeometry>
        </mxCell>
        <mxCell id="T7wmiBNPCrbkLk8Af17o-110" style="edgeStyle=orthogonalEdgeStyle;rounded=0;orthogonalLoop=1;jettySize=auto;html=1;exitX=0.5;exitY=1;exitDx=0;exitDy=0;" edge="1" parent="1" source="T7wmiBNPCrbkLk8Af17o-38">
          <mxGeometry relative="1" as="geometry">
            <mxPoint x="190" y="840" as="targetPoint" />
            <Array as="points">
              <mxPoint x="1020" y="860" />
              <mxPoint x="190" y="860" />
            </Array>
          </mxGeometry>
        </mxCell>
        <mxCell id="T7wmiBNPCrbkLk8Af17o-111" value="Clone" style="edgeLabel;html=1;align=center;verticalAlign=middle;resizable=0;points=[];" vertex="1" connectable="0" parent="T7wmiBNPCrbkLk8Af17o-110">
          <mxGeometry x="-0.0414" y="-2" relative="1" as="geometry">
            <mxPoint x="-284" y="2" as="offset" />
          </mxGeometry>
        </mxCell>
        <mxCell id="T7wmiBNPCrbkLk8Af17o-38" value="&lt;b&gt;buildkitd&lt;/b&gt;&lt;div&gt;docker image builder&lt;/div&gt;" style="rounded=1;whiteSpace=wrap;html=1;fillColor=#dae8fc;strokeColor=#6c8ebf;" vertex="1" parent="1">
          <mxGeometry x="960" y="720" width="120" height="60" as="geometry" />
        </mxCell>
        <mxCell id="T7wmiBNPCrbkLk8Af17o-101" style="edgeStyle=orthogonalEdgeStyle;rounded=0;orthogonalLoop=1;jettySize=auto;html=1;exitX=1;exitY=0.5;exitDx=0;exitDy=0;entryX=0.5;entryY=1;entryDx=0;entryDy=0;" edge="1" parent="1" source="T7wmiBNPCrbkLk8Af17o-43" target="T7wmiBNPCrbkLk8Af17o-57">
          <mxGeometry relative="1" as="geometry" />
        </mxCell>
        <mxCell id="T7wmiBNPCrbkLk8Af17o-103" value="Push images" style="edgeLabel;html=1;align=center;verticalAlign=middle;resizable=0;points=[];" vertex="1" connectable="0" parent="T7wmiBNPCrbkLk8Af17o-101">
          <mxGeometry x="0.3903" y="3" relative="1" as="geometry">
            <mxPoint x="3" as="offset" />
          </mxGeometry>
        </mxCell>
        <mxCell id="T7wmiBNPCrbkLk8Af17o-43" value="&lt;b&gt;buildpack builder&lt;/b&gt;&lt;div&gt;docker image builder&lt;/div&gt;" style="rounded=1;whiteSpace=wrap;html=1;fillColor=#dae8fc;strokeColor=#6c8ebf;" vertex="1" parent="1">
          <mxGeometry x="960" y="650" width="120" height="60" as="geometry" />
        </mxCell>
        <mxCell id="T7wmiBNPCrbkLk8Af17o-53" value="" style="group" vertex="1" connectable="0" parent="1">
          <mxGeometry x="930" y="270.5" width="40" height="37" as="geometry" />
        </mxCell>
        <mxCell id="T7wmiBNPCrbkLk8Af17o-40" value="" style="aspect=fixed;sketch=0;html=1;dashed=0;whitespace=wrap;fillColor=#2875E2;strokeColor=#ffffff;points=[[0.005,0.63,0],[0.1,0.2,0],[0.9,0.2,0],[0.5,0,0],[0.995,0.63,0],[0.72,0.99,0],[0.5,1,0],[0.28,0.99,0]];shape=mxgraph.kubernetes.icon2;prIcon=pod" vertex="1" parent="T7wmiBNPCrbkLk8Af17o-53">
          <mxGeometry x="9.590000000000032" width="20.83" height="20" as="geometry" />
        </mxCell>
        <mxCell id="T7wmiBNPCrbkLk8Af17o-52" value="Pod" style="text;html=1;align=center;verticalAlign=middle;whiteSpace=wrap;rounded=0;fontSize=8;" vertex="1" parent="T7wmiBNPCrbkLk8Af17o-53">
          <mxGeometry y="17" width="40" height="20" as="geometry" />
        </mxCell>
        <mxCell id="T7wmiBNPCrbkLk8Af17o-54" value="" style="group" vertex="1" connectable="0" parent="1">
          <mxGeometry x="800" y="731.5" width="40" height="37" as="geometry" />
        </mxCell>
        <mxCell id="T7wmiBNPCrbkLk8Af17o-55" value="" style="aspect=fixed;sketch=0;html=1;dashed=0;whitespace=wrap;fillColor=#2875E2;strokeColor=#ffffff;points=[[0.005,0.63,0],[0.1,0.2,0],[0.9,0.2,0],[0.5,0,0],[0.995,0.63,0],[0.72,0.99,0],[0.5,1,0],[0.28,0.99,0]];shape=mxgraph.kubernetes.icon2;prIcon=pod" vertex="1" parent="T7wmiBNPCrbkLk8Af17o-54">
          <mxGeometry x="10" width="20.42" height="19.61" as="geometry" />
        </mxCell>
        <mxCell id="T7wmiBNPCrbkLk8Af17o-56" value="Pod" style="text;html=1;align=center;verticalAlign=middle;whiteSpace=wrap;rounded=0;fontSize=8;" vertex="1" parent="T7wmiBNPCrbkLk8Af17o-54">
          <mxGeometry y="20" width="40" height="17" as="geometry" />
        </mxCell>
        <mxCell id="T7wmiBNPCrbkLk8Af17o-57" value="&lt;b&gt;Container Registry&lt;/b&gt;&lt;div&gt;Hosts docker images&lt;/div&gt;" style="rounded=1;whiteSpace=wrap;html=1;fillColor=#dae8fc;strokeColor=#6c8ebf;" vertex="1" parent="1">
          <mxGeometry x="1090" y="525" width="140" height="60" as="geometry" />
        </mxCell>
        <mxCell id="T7wmiBNPCrbkLk8Af17o-67" value="" style="group" vertex="1" connectable="0" parent="1">
          <mxGeometry x="1070" y="280.5" width="205" height="90" as="geometry" />
        </mxCell>
        <mxCell id="T7wmiBNPCrbkLk8Af17o-65" value="" style="rounded=1;whiteSpace=wrap;html=1;fillColor=#dae8fc;strokeColor=#6c8ebf;" vertex="1" parent="T7wmiBNPCrbkLk8Af17o-67">
          <mxGeometry width="205" height="90" as="geometry" />
        </mxCell>
        <mxCell id="T7wmiBNPCrbkLk8Af17o-62" value="" style="image;sketch=0;aspect=fixed;html=1;points=[];align=center;fontSize=12;image=img/lib/mscae/Docker.svg;" vertex="1" parent="T7wmiBNPCrbkLk8Af17o-67">
          <mxGeometry x="123.5" y="32.5" width="50" height="41" as="geometry" />
        </mxCell>
        <mxCell id="T7wmiBNPCrbkLk8Af17o-63" value="or" style="text;html=1;align=center;verticalAlign=middle;resizable=0;points=[];autosize=1;strokeColor=none;fillColor=none;" vertex="1" parent="T7wmiBNPCrbkLk8Af17o-67">
          <mxGeometry x="87.5" y="38" width="30" height="30" as="geometry" />
        </mxCell>
        <mxCell id="T7wmiBNPCrbkLk8Af17o-66" value="&lt;b&gt;Container Runtime&lt;/b&gt;" style="text;html=1;align=center;verticalAlign=middle;resizable=0;points=[];autosize=1;strokeColor=none;fillColor=none;" vertex="1" parent="T7wmiBNPCrbkLk8Af17o-67">
          <mxGeometry x="37.5" width="130" height="30" as="geometry" />
        </mxCell>
        <mxCell id="T7wmiBNPCrbkLk8Af17o-76" value="" style="image;sketch=0;aspect=fixed;html=1;points=[];align=center;fontSize=12;image=img/lib/mscae/Kubernetes.svg;" vertex="1" parent="T7wmiBNPCrbkLk8Af17o-67">
          <mxGeometry x="32.5" y="29" width="50" height="48" as="geometry" />
        </mxCell>
        <mxCell id="T7wmiBNPCrbkLk8Af17o-69" style="edgeStyle=orthogonalEdgeStyle;rounded=0;orthogonalLoop=1;jettySize=auto;html=1;entryX=0.5;entryY=0;entryDx=0;entryDy=0;" edge="1" parent="1" source="T7wmiBNPCrbkLk8Af17o-65" target="T7wmiBNPCrbkLk8Af17o-57">
          <mxGeometry relative="1" as="geometry">
            <Array as="points">
              <mxPoint x="1160" y="410" />
              <mxPoint x="1160" y="410" />
            </Array>
          </mxGeometry>
        </mxCell>
        <mxCell id="T7wmiBNPCrbkLk8Af17o-74" value="Pull images" style="edgeLabel;html=1;align=center;verticalAlign=middle;resizable=0;points=[];" vertex="1" connectable="0" parent="T7wmiBNPCrbkLk8Af17o-69">
          <mxGeometry x="0.0267" y="-1" relative="1" as="geometry">
            <mxPoint as="offset" />
          </mxGeometry>
        </mxCell>
        <mxCell id="T7wmiBNPCrbkLk8Af17o-70" style="edgeStyle=orthogonalEdgeStyle;rounded=0;orthogonalLoop=1;jettySize=auto;html=1;entryX=1.068;entryY=0.548;entryDx=0;entryDy=0;entryPerimeter=0;" edge="1" parent="1" source="T7wmiBNPCrbkLk8Af17o-65" target="T7wmiBNPCrbkLk8Af17o-10">
          <mxGeometry relative="1" as="geometry">
            <Array as="points">
              <mxPoint x="1160" y="211" />
            </Array>
          </mxGeometry>
        </mxCell>
        <mxCell id="T7wmiBNPCrbkLk8Af17o-72" value="Run container" style="edgeLabel;html=1;align=center;verticalAlign=middle;resizable=0;points=[];" vertex="1" connectable="0" parent="T7wmiBNPCrbkLk8Af17o-70">
          <mxGeometry x="0.1647" y="-1" relative="1" as="geometry">
            <mxPoint x="2" as="offset" />
          </mxGeometry>
        </mxCell>
        <mxCell id="T7wmiBNPCrbkLk8Af17o-71" style="edgeStyle=orthogonalEdgeStyle;rounded=0;orthogonalLoop=1;jettySize=auto;html=1;entryX=1.054;entryY=0.502;entryDx=0;entryDy=0;entryPerimeter=0;" edge="1" parent="1" source="T7wmiBNPCrbkLk8Af17o-66" target="T7wmiBNPCrbkLk8Af17o-5">
          <mxGeometry relative="1" as="geometry">
            <Array as="points">
              <mxPoint x="1160" y="140" />
            </Array>
          </mxGeometry>
        </mxCell>
        <mxCell id="T7wmiBNPCrbkLk8Af17o-73" value="Run container" style="edgeLabel;html=1;align=center;verticalAlign=middle;resizable=0;points=[];" vertex="1" connectable="0" parent="T7wmiBNPCrbkLk8Af17o-71">
          <mxGeometry x="0.2431" y="2" relative="1" as="geometry">
            <mxPoint x="-11" y="-2" as="offset" />
          </mxGeometry>
        </mxCell>
        <mxCell id="T7wmiBNPCrbkLk8Af17o-79" value="&lt;b&gt;Proxy Auth&lt;/b&gt;&lt;div&gt;&lt;b&gt;via OAuth2 / OIDC&lt;/b&gt;&lt;/div&gt;&lt;div&gt;(traefik-forward-auth)&lt;/div&gt;" style="rounded=1;whiteSpace=wrap;html=1;fillColor=#dae8fc;strokeColor=#6c8ebf;" vertex="1" parent="1">
          <mxGeometry x="310.5" y="140.5" width="120" height="60" as="geometry" />
        </mxCell>
        <mxCell id="T7wmiBNPCrbkLk8Af17o-82" value="&lt;b&gt;ns-gateway&lt;/b&gt;&lt;div&gt;API server&lt;/div&gt;" style="rounded=1;whiteSpace=wrap;html=1;fillColor=#d5e8d4;strokeColor=#82b366;" vertex="1" parent="1">
          <mxGeometry x="570" y="390" width="120" height="60" as="geometry" />
        </mxCell>
        <mxCell id="T7wmiBNPCrbkLk8Af17o-85" value="&lt;div style=&quot;font-size: 10px;&quot;&gt;&lt;font style=&quot;font-size: 10px;&quot;&gt;&lt;br style=&quot;font-size: 10px;&quot;&gt;&lt;/font&gt;&lt;/div&gt;&lt;font style=&quot;font-size: 10px;&quot;&gt;&lt;b style=&quot;font-size: 10px;&quot;&gt;Internal state&lt;br style=&quot;font-size: 10px;&quot;&gt;&lt;/b&gt;(mariadb)&lt;/font&gt;" style="strokeWidth=2;html=1;shape=mxgraph.flowchart.database;whiteSpace=wrap;fontSize=10;" vertex="1" parent="1">
          <mxGeometry x="710" y="500" width="70" height="70" as="geometry" />
        </mxCell>
        <mxCell id="T7wmiBNPCrbkLk8Af17o-90" style="edgeStyle=orthogonalEdgeStyle;rounded=0;orthogonalLoop=1;jettySize=auto;html=1;entryX=1;entryY=0.15;entryDx=0;entryDy=0;entryPerimeter=0;" edge="1" parent="1" source="T7wmiBNPCrbkLk8Af17o-18" target="T7wmiBNPCrbkLk8Af17o-85">
          <mxGeometry relative="1" as="geometry">
            <Array as="points">
              <mxPoint x="840" y="511" />
            </Array>
          </mxGeometry>
        </mxCell>
        <mxCell id="T7wmiBNPCrbkLk8Af17o-91" value="Read" style="edgeLabel;html=1;align=center;verticalAlign=middle;resizable=0;points=[];" vertex="1" connectable="0" parent="T7wmiBNPCrbkLk8Af17o-90">
          <mxGeometry x="-0.3499" y="2" relative="1" as="geometry">
            <mxPoint x="-32" y="25" as="offset" />
          </mxGeometry>
        </mxCell>
        <mxCell id="T7wmiBNPCrbkLk8Af17o-92" style="edgeStyle=orthogonalEdgeStyle;rounded=0;orthogonalLoop=1;jettySize=auto;html=1;entryX=0;entryY=0.15;entryDx=0;entryDy=0;entryPerimeter=0;" edge="1" parent="1" source="T7wmiBNPCrbkLk8Af17o-82" target="T7wmiBNPCrbkLk8Af17o-85">
          <mxGeometry relative="1" as="geometry">
            <Array as="points">
              <mxPoint x="630" y="510" />
              <mxPoint x="710" y="510" />
            </Array>
          </mxGeometry>
        </mxCell>
        <mxCell id="T7wmiBNPCrbkLk8Af17o-93" value="Mutate" style="edgeLabel;html=1;align=center;verticalAlign=middle;resizable=0;points=[];" vertex="1" connectable="0" parent="T7wmiBNPCrbkLk8Af17o-92">
          <mxGeometry x="0.5926" relative="1" as="geometry">
            <mxPoint x="-14" as="offset" />
          </mxGeometry>
        </mxCell>
        <mxCell id="T7wmiBNPCrbkLk8Af17o-94" style="edgeStyle=orthogonalEdgeStyle;rounded=0;orthogonalLoop=1;jettySize=auto;html=1;entryX=0;entryY=0.85;entryDx=0;entryDy=0;entryPerimeter=0;startArrow=classic;startFill=1;exitX=0.5;exitY=0;exitDx=0;exitDy=0;" edge="1" parent="1" source="T7wmiBNPCrbkLk8Af17o-16" target="T7wmiBNPCrbkLk8Af17o-85">
          <mxGeometry relative="1" as="geometry">
            <Array as="points">
              <mxPoint x="630" y="560" />
              <mxPoint x="640" y="560" />
            </Array>
          </mxGeometry>
        </mxCell>
        <mxCell id="T7wmiBNPCrbkLk8Af17o-95" value="Read,&lt;br&gt;reconcile" style="edgeLabel;html=1;align=center;verticalAlign=middle;resizable=0;points=[];" vertex="1" connectable="0" parent="T7wmiBNPCrbkLk8Af17o-94">
          <mxGeometry x="0.2545" y="2" relative="1" as="geometry">
            <mxPoint x="12" y="2" as="offset" />
          </mxGeometry>
        </mxCell>
        <mxCell id="T7wmiBNPCrbkLk8Af17o-106" style="edgeStyle=orthogonalEdgeStyle;rounded=0;orthogonalLoop=1;jettySize=auto;html=1;entryX=0;entryY=0.5;entryDx=0;entryDy=0;" edge="1" parent="1" source="T7wmiBNPCrbkLk8Af17o-104" target="T7wmiBNPCrbkLk8Af17o-16">
          <mxGeometry relative="1" as="geometry">
            <Array as="points">
              <mxPoint x="185" y="680" />
            </Array>
          </mxGeometry>
        </mxCell>
        <mxCell id="T7wmiBNPCrbkLk8Af17o-107" value="Optional push event webhook&lt;br&gt;(ns.trap.jp/api/webhook)" style="edgeLabel;html=1;align=center;verticalAlign=middle;resizable=0;points=[];" vertex="1" connectable="0" parent="T7wmiBNPCrbkLk8Af17o-106">
          <mxGeometry x="0.1012" y="3" relative="1" as="geometry">
            <mxPoint as="offset" />
          </mxGeometry>
        </mxCell>
        <mxCell id="T7wmiBNPCrbkLk8Af17o-104" value="&lt;b&gt;Git Provider&lt;/b&gt;&lt;br&gt;(GitHub, Gitea etc.)" style="shape=image;html=1;verticalAlign=top;verticalLabelPosition=bottom;labelBackgroundColor=#ffffff;imageAspect=0;aspect=fixed;image=https://cdn4.iconfinder.com/data/icons/ionicons/512/icon-social-github-128.png" vertex="1" parent="1">
          <mxGeometry x="150" y="725.5" width="70" height="70" as="geometry" />
        </mxCell>
      </root>
    </mxGraphModel>
  </diagram>
</mxfile>
